<svg width="122" height="126" viewBox="0 0 122 126" fill="none" xmlns="http://www.w3.org/2000/svg">
<path d="M61.4376 11.3449C77.5994 11.3449 79.5133 11.4187 85.8693 11.7141C91.7763 11.9848 94.9661 13.0184 97.0927 13.8797C99.9045 15.0117 101.936 16.3898 104.039 18.5801C106.166 20.7949 107.466 22.8867 108.552 25.8152C109.379 28.0301 110.372 31.377 110.632 37.5047C110.915 44.1492 110.986 46.1426 110.986 62.9508C110.986 79.7836 110.915 81.777 110.632 88.3969C110.372 94.5492 109.379 97.8715 108.552 100.086C107.466 103.015 106.142 105.131 104.039 107.321C101.913 109.536 99.9045 110.89 97.0927 112.022C94.9661 112.883 91.7527 113.917 85.8693 114.187C79.4896 114.483 77.5757 114.557 61.4376 114.557C45.2759 114.557 43.362 114.483 37.006 114.187C31.0989 113.917 27.9091 112.883 25.7825 112.022C22.9708 110.89 20.9387 109.512 18.8358 107.321C16.7093 105.107 15.4097 103.015 14.3228 100.086C13.4958 97.8715 12.5034 94.5246 12.2435 88.3969C11.96 81.7523 11.8891 79.759 11.8891 62.9508C11.8891 46.118 11.96 44.1246 12.2435 37.5047C12.5034 31.3523 13.4958 28.0301 14.3228 25.8152C15.4097 22.8867 16.7329 20.7703 18.8358 18.5801C20.9624 16.3652 22.9708 15.0117 25.7825 13.8797C27.9091 13.0184 31.1225 11.9848 37.006 11.7141C43.362 11.4187 45.2759 11.3449 61.4376 11.3449ZM61.4376 0C45.016 0 42.9603 0.0738281 36.5098 0.369141C30.0829 0.664453 25.6644 1.74727 21.8366 3.29766C17.8434 4.92188 14.4646 7.06289 11.1094 10.582C7.73054 14.0766 5.67487 17.5957 4.11541 21.7301C2.62683 25.7414 1.58718 30.3187 1.30364 37.0125C1.0201 43.7555 0.949219 45.8965 0.949219 63C0.949219 80.1035 1.0201 82.2445 1.30364 88.9629C1.58718 95.6566 2.62683 100.259 4.11541 104.245C5.67487 108.404 7.73054 111.923 11.1094 115.418C14.4646 118.912 17.8434 121.078 21.813 122.678C25.6644 124.228 30.0593 125.311 36.4862 125.606C42.9367 125.902 44.9923 125.975 61.414 125.975C77.8356 125.975 79.8913 125.902 86.3418 125.606C92.7687 125.311 97.1872 124.228 101.015 122.678C104.985 121.078 108.363 118.912 111.719 115.418C115.074 111.923 117.153 108.404 118.689 104.27C120.178 100.259 121.217 95.6813 121.501 88.9875C121.784 82.2691 121.855 80.1281 121.855 63.0246C121.855 45.9211 121.784 43.7801 121.501 37.0617C121.217 30.368 120.178 25.766 118.689 21.7793C117.2 17.5957 115.145 14.0766 111.766 10.582C108.411 7.0875 105.032 4.92188 101.062 3.32227C97.2108 1.77187 92.816 0.689063 86.3891 0.39375C79.9149 0.0738282 77.8593 0 61.4376 0Z" fill="black"/>
<path d="M61.4376 30.6387C44.2835 30.6387 30.3664 45.1336 30.3664 63C30.3664 80.8664 44.2835 95.3613 61.4376 95.3613C78.5917 95.3613 92.5088 80.8664 92.5088 63C92.5088 45.1336 78.5917 30.6387 61.4376 30.6387ZM61.4376 83.9918C50.3087 83.9918 41.2827 74.591 41.2827 63C41.2827 51.409 50.3087 42.0082 61.4376 42.0082C72.5665 42.0082 81.5925 51.409 81.5925 63C81.5925 74.591 72.5665 83.9918 61.4376 83.9918Z" fill="black"/>
<path d="M100.991 29.3588C100.991 33.5424 97.7306 36.9139 93.7375 36.9139C89.7207 36.9139 86.4836 33.5178 86.4836 29.3588C86.4836 25.1752 89.7443 21.8037 93.7375 21.8037C97.7306 21.8037 100.991 25.1998 100.991 29.3588Z" fill="black"/>
</svg>
