<svg width="122" height="126" viewBox="0 0 122 126" fill="none" xmlns="http://www.w3.org/2000/svg">
<path d="M112.672 0H9.58188C4.64357 0 0.650391 4.06055 0.650391 9.08086V116.895C0.650391 121.915 4.64357 126 9.58188 126H112.672C117.61 126 121.627 121.915 121.627 116.919V9.08086C121.627 4.06055 117.61 0 112.672 0ZM36.5417 107.371H18.5842V47.2254H36.5417V107.371ZM27.563 39.0305C21.7977 39.0305 17.1429 34.1824 17.1429 28.2023C17.1429 22.2223 21.7977 17.3742 27.563 17.3742C33.3047 17.3742 37.9594 22.2223 37.9594 28.2023C37.9594 34.1578 33.3047 39.0305 27.563 39.0305ZM103.741 107.371H85.8067V78.1348C85.8067 71.1703 85.6885 62.1879 76.4735 62.1879C67.1403 62.1879 65.7226 69.7922 65.7226 77.6426V107.371H47.8124V47.2254H65.0138V55.4449H65.2501C67.6365 50.7199 73.4964 45.7242 82.2152 45.7242C100.385 45.7242 103.741 58.1766 103.741 74.3695V107.371Z" fill="black"/>
</svg>
