<svg width="121" height="104" viewBox="0 0 121 104" fill="none" xmlns="http://www.w3.org/2000/svg">
<path d="M38.0815 103.19C83.7219 103.19 108.692 63.7978 108.692 29.6474C108.692 28.54 108.669 27.4079 108.621 26.3005C113.479 22.6418 117.671 18.11 121 12.9179C116.476 15.0143 111.673 16.3834 106.755 16.9785C111.933 13.7454 115.811 8.66635 117.669 2.6829C112.797 5.69005 107.469 7.81134 101.913 8.95583C98.1701 4.81332 93.2208 2.07049 87.8308 1.15139C82.4408 0.232299 76.9102 1.18814 72.094 3.87113C67.2779 6.55412 63.4445 10.8148 61.1865 15.9945C58.9285 21.1742 58.3717 26.9844 59.6021 32.5267C49.7373 32.0111 40.0866 29.3421 31.2757 24.6926C22.4648 20.0432 14.6903 13.5172 8.45637 5.53759C5.28794 11.2272 4.3184 17.9598 5.74478 24.3671C7.17117 30.7744 10.8865 36.3757 16.1356 40.0326C12.1948 39.9022 8.34047 38.7972 4.89086 36.8087V37.1286C4.88733 43.0994 6.8692 48.8872 10.4996 53.5082C14.1299 58.1291 19.1848 61.2981 24.8048 62.4763C21.1543 63.5166 17.323 63.6681 13.6073 62.9193C15.1932 68.0542 18.2787 72.5453 22.4332 75.7659C26.5878 78.9864 31.604 80.7758 36.7819 80.8841C27.9914 88.076 17.1324 91.9768 5.95413 91.9583C3.97175 91.9552 1.99132 91.8286 0.0234375 91.5793C11.3794 99.1673 24.5894 103.197 38.0815 103.19Z" fill="black"/>
</svg>
